# xmcd
#
# Track frame offsets:
#	150
#	19142
#	37650
#	57487
#	77740
#	99457
#	120375
#	136877
#	156797
#	177682
#	196202
#	210237
#
# Disc length: 2893 seconds
#
# Revision: 1262563175
# Processed by: cddbd v1.5.2PL0 Copyright (c) Steve Scherf et al.
# Submitted via: EZCDAudioConverter 8.2.1.1
#
DISCID=950b4b0c
DTITLE=Shania Twain - The Woman In Me
DYEAR=1995
DGENRE=Pop/Country
TTITLE0=Home Ain't Where His Heart Is (Anymore) - (1995)
TTITLE1=Any Man Of Mine - (1995)
TTITLE2=Whose Bed Have Your Boots Been Under - (1995)
TTITLE3=(If You're Not In It For Love) I'm Outta Here! - (1995)
TTITLE4=The Woman In Me (Needs The Man In You) - (1995)
TTITLE5=Is There Life After Love? - (1995)
TTITLE6=If It Don't Take Two - (1995)
TTITLE7=You Win My Love - (1995)
TTITLE8=Raining On Our Love - (1995)
TTITLE9=Leaving Is The Only Way Out - (1995)
TTITLE10=No One Needs To Know - (1995)
TTITLE11=God Bless The Child - (1995)
EXTD=
EXTT0=
EXTT1=
EXTT2=
EXTT3=
EXTT4=
EXTT5=
EXTT6=
EXTT7=
EXTT8=
EXTT9=
EXTT10=
EXTT11=
PLAYORDER=
